<svg width="156" height="253" viewBox="0 0 156 253" fill="none" xmlns="http://www.w3.org/2000/svg">
<rect x="2.83636" y="34.0364" width="150.327" height="184.364" stroke="black" stroke-width="5.67273"/>
<path d="M67.6659 74.5337C63.1148 74.7866 59.7646 75.2923 57.6155 76.0508C55.5927 76.8093 54.2021 78.2631 53.4436 80.4123C52.6851 82.5615 52.3058 86.038 52.3058 90.842V184.899C52.3058 189.703 52.6851 193.18 53.4436 195.329C54.2021 197.478 55.5927 198.932 57.6155 199.69C59.7646 200.322 63.1148 200.638 67.6659 200.638H81.509C89.3471 200.638 95.2889 199.564 99.3343 197.415C103.506 195.139 106.54 191.536 108.437 186.606C110.333 181.675 111.724 174.533 112.609 165.177H116.97C116.591 169.096 116.401 174.28 116.401 180.727C116.401 187.933 116.844 196.024 117.729 205C109.132 204.621 94.6568 204.431 74.303 204.431C50.0302 204.431 31.6992 204.621 19.31 205V201.207C23.8611 200.955 27.1481 200.449 29.1708 199.69C31.3199 198.932 32.7738 197.478 33.5323 195.329C34.2908 193.18 34.6701 189.703 34.6701 184.899V90.842C34.6701 86.038 34.2908 82.5615 33.5323 80.4123C32.7738 78.2631 31.3199 76.8093 29.1708 76.0508C27.1481 75.2923 23.8611 74.7866 19.31 74.5337V70.7411C24.6196 71.1204 32.7106 71.31 43.5828 71.31C53.6964 71.31 61.7241 71.1204 67.6659 70.7411V74.5337Z" fill="black"/>
<path d="M135.455 58.8708C134.49 58.9244 133.779 59.0317 133.324 59.1926C132.894 59.3535 132.599 59.6619 132.439 60.1178C132.278 60.5736 132.197 61.3111 132.197 62.3301V82.2816C132.197 83.3007 132.278 84.0381 132.439 84.494C132.599 84.9499 132.894 85.2583 133.324 85.4192C133.779 85.5801 134.49 85.6873 135.455 85.741V86.5455C134.222 86.465 132.519 86.4248 130.347 86.4248C128.041 86.4248 126.324 86.465 125.198 86.5455V85.741C126.164 85.6873 126.861 85.5801 127.29 85.4192C127.746 85.2583 128.054 84.9499 128.215 84.494C128.376 84.0381 128.456 83.3007 128.456 82.2816V60.7211L118.762 86.7466H118.119L107.982 60.6407V81.8794C107.982 82.9252 108.062 83.7029 108.223 84.2124C108.411 84.7219 108.76 85.0974 109.269 85.3387C109.779 85.5532 110.57 85.6873 111.642 85.741V86.5455C110.677 86.465 109.309 86.4248 107.539 86.4248C105.93 86.4248 104.683 86.465 103.799 86.5455V85.741C104.737 85.6873 105.434 85.5532 105.89 85.3387C106.346 85.0974 106.654 84.7219 106.815 84.2124C106.976 83.6761 107.057 82.8984 107.057 81.8794V62.3301C107.057 61.3111 106.976 60.5736 106.815 60.1178C106.654 59.6619 106.346 59.3535 105.89 59.1926C105.461 59.0317 104.764 58.9244 103.799 58.8708V58.0663C104.683 58.1467 105.93 58.187 107.539 58.187C108.934 58.187 110.074 58.1467 110.959 58.0663L119.808 81.3565L128.456 58.187H130.347C132.519 58.187 134.222 58.1467 135.455 58.0663V58.8708Z" fill="black"/>
</svg>
